<svg xmlns="http://www.w3.org/2000/svg" xmlns:xlink="http://www.w3.org/1999/xlink" viewBox="0,0,256,256" width="48px" height="48px" fill-rule="nonzero"><defs><linearGradient x1="2.027" y1="23.527" x2="16.293" y2="37.792" gradientUnits="userSpaceOnUse" id="color-1"><stop offset="0" stop-color="#ffd66c"></stop><stop offset="1" stop-color="#f0ca57" stop-opacity="0.8"></stop></linearGradient><linearGradient x1="7.301" y1="21.801" x2="25.37" y2="39.87" gradientUnits="userSpaceOnUse" id="color-2"><stop offset="0" stop-color="#ffd66c"></stop><stop offset="1" stop-color="#f0ca57" stop-opacity="0.8"></stop></linearGradient><linearGradient x1="12.575" y1="20.075" x2="34.449" y2="41.949" gradientUnits="userSpaceOnUse" id="color-3"><stop offset="0" stop-color="#ffd66c"></stop><stop offset="1" stop-color="#f0ca57" stop-opacity="0.8"></stop></linearGradient><linearGradient x1="16.985" y1="17.485" x2="44.566" y2="45.066" gradientUnits="userSpaceOnUse" id="color-4"><stop offset="0" stop-color="#ffd66c"></stop><stop offset="1" stop-color="#f0ca57" stop-opacity="0.8"></stop></linearGradient><linearGradient x1="-28.986" y1="-33.763" x2="51.524" y2="46.747" gradientUnits="userSpaceOnUse" id="color-5"><stop offset="0" stop-color="#ffd66c"></stop><stop offset="1" stop-color="#f0ca57" stop-opacity="0.8"></stop></linearGradient></defs><g fill="none" fill-rule="nonzero" stroke="none" stroke-width="1" stroke-linecap="butt" stroke-linejoin="miter" stroke-miterlimit="10" stroke-dasharray="" stroke-dashoffset="0" font-family="none" font-weight="none" font-size="none" text-anchor="none" style="mix-blend-mode: normal"><g transform="scale(5.33333,5.33333)"><path d="M11,35h-2c-1.657,0 -3,-1.343 -3,-3v-7h2c1.657,0 3,1.343 3,3z" fill="url(#color-1)"></path><path d="M18,37h-2c-1.657,0 -3,-1.343 -3,-3v-11h2c1.657,0 3,1.343 3,3z" fill="url(#color-2)"></path><path d="M25,39h-2c-1.657,0 -3,-1.343 -3,-3v-15h2c1.657,0 3,1.343 3,3z" fill="url(#color-3)"></path><path d="M32,42h-2c-1.657,0 -3,-1.343 -3,-3v-21h2c1.657,0 3,1.343 3,3z" fill="url(#color-4)"></path><path d="M37.79,12.214l-24,-7.5c-1.841,-0.577 -3.789,-0.25 -5.343,0.892c-1.555,1.143 -2.447,2.905 -2.447,4.835v12.559h4v-12.559c0,-0.643 0.297,-1.23 0.815,-1.612c0.518,-0.382 1.166,-0.49 1.781,-0.297l24,7.5c0.84,0.262 1.404,1.03 1.404,1.909v15.618c0,0.643 -0.297,1.23 -0.815,1.612c-0.519,0.38 -1.168,0.489 -1.781,0.297l-1.404,-0.468v4.22l0.21,0.066c0.597,0.187 1.206,0.279 1.808,0.279c1.255,0 2.485,-0.399 3.535,-1.171c1.555,-1.143 2.447,-2.905 2.447,-4.835v-15.618c0,-2.639 -1.692,-4.941 -4.21,-5.727z" fill="url(#color-5)"></path></g></g></svg>